<svg xmlns="http://www.w3.org/2000/svg" viewBox="0 0 33 43.22">
  <path fill="#00b37e" d="M2.46.05C1,.3,0,1.68,0,3.17v29.23C0,34.1,1.42,35.47,3.14,35.4c1.64-.07,2.86-1.55,2.86-3.19V3C6,1.17,4.36-.28,2.46.05ZM11.46,7.87c-1.46.25-2.46,1.64-2.46,3.12v29.23c0,1.7,1.42,3.07,3.14,3,1.64-.07,2.86-1.55,2.86-3.19V10.82c0-1.83-1.64-3.28-3.54-2.95ZM20.46.05c-1.46.25-2.46,1.64-2.46,3.12v29.23c0,1.7,1.42,3.07,3.14,3,1.64-.07,2.86-1.55,2.86-3.19V3c0-1.83-1.64-3.28-3.54-2.95ZM29.46,7.87c-1.46.25-2.46,1.64-2.46,3.12v29.23c0,1.7,1.42,3.07,3.14,3,1.64-.07,2.86-1.55,2.86-3.19V10.82c0-1.83-1.64-3.28-3.54-2.95Z"/>
</svg>