<?xml version="1.0" encoding="utf-8"?>
<!-- Generator: Adobe Illustrator 27.9.0, SVG Export Plug-In . SVG Version: 6.00 Build 0)  -->
<svg version="1.1" id="Layer_1" xmlns="http://www.w3.org/2000/svg" xmlns:xlink="http://www.w3.org/1999/xlink" x="0px" y="0px"
	 viewBox="0 0 27 27" style="enable-background:new 0 0 27 27;" xml:space="preserve">
<style type="text/css">
	.st0{fill-rule:evenodd;clip-rule:evenodd;fill:#4FAD69;}
</style>
<g>
	<g>
		<path class="st0" d="M4,0H2C0.9,0,0,0.9,0,2v2c0,1.1,0.9,2,2,2h2c1.1,0,2-0.9,2-2V2C6,0.9,5.1,0,4,0z M18,14h-2c-1.1,0-2,0.9-2,2
			v2c0,1.1,0.9,2,2,2h2c1.1,0,2-0.9,2-2v-2C20,14.9,19.1,14,18,14z M25,21h-2c-1.1,0-2,0.9-2,2v2c0,1.1,0.9,2,2,2h2c1.1,0,2-0.9,2-2
			v-2C27,21.9,26.1,21,25,21z M25,14h-2c-1.1,0-2,0.9-2,2v2c0,1.1,0.9,2,2,2h2c1.1,0,2-0.9,2-2v-2C27,14.9,26.1,14,25,14z M25,7h-2
			c-1.1,0-2,0.9-2,2v2c0,1.1,0.9,2,2,2h2c1.1,0,2-0.9,2-2V9C27,7.9,26.1,7,25,7z M18,7h-2c-1.1,0-2,0.9-2,2v2c0,1.1,0.9,2,2,2h2
			c1.1,0,2-0.9,2-2V9C20,7.9,19.1,7,18,7z M11,7H9C7.9,7,7,7.9,7,9v2c0,1.1,0.9,2,2,2h2c1.1,0,2-0.9,2-2V9C13,7.9,12.1,7,11,7z
			 M11,0H9C7.9,0,7,0.9,7,2v2c0,1.1,0.9,2,2,2h2c1.1,0,2-0.9,2-2V2C13,0.9,12.1,0,11,0z"/>
	</g>
</g>
</svg>
